<svg xmlns="http://www.w3.org/2000/svg" viewBox="0 0 100 60" fill="none">
  <path d="M92 0H8C3.58172 0 0 3.58172 0 8V52C0 56.4183 3.58172 60 8 60H92C96.4183 60 100 56.4183 100 52V8C100 3.58172 96.4183 0 92 0Z" fill="#345B7C"/>
  <path d="M87.6808 23.8927C87.6808 23.5457 87.1323 23.3939 86.6381 23.3706L52.4007 23.0827L52.3725 18.3165C52.3387 12.7065 50.4207 13.0027 50.4207 13.0027L50.26 13.0027C50.26 13.0027 48.342 12.7065 48.3082 18.3165L48.28 23.0827L14.0427 23.3706C13.5485 23.3939 13 23.5457 13 23.8927V25.4227L48.5586 27.7797L49.09 43.7827L45.7206 44.1427C44.2059 44.3253 43.6993 44.7227 43.69 44.8627C43.6807 45.0027 43.6654 45.851 43.6654 45.851C43.69 46.1227 43.69 46.1227 43.78 46.2127L48.949 46.701C49.3157 46.6573 49.4595 46.5572 49.72 46.3027C49.72 46.3027 49.764 46.8427 49.81 46.9327H50.8707C50.9167 46.8427 50.9607 46.3027 50.9607 46.3027C51.2213 46.5572 51.365 46.6573 51.7317 46.701L56.9007 46.2127C56.9907 46.1227 56.9907 46.1227 57.0154 45.851C57.0154 45.851 57 45.0027 56.9907 44.8627C56.9815 44.7227 56.4748 44.3253 54.9601 44.1427L51.5907 43.7827L52.1221 27.7797L87.6808 25.4227V23.8927Z" fill="white"/>
</svg>
