<svg width="267" height="60" viewBox="0 0 267 60" fill="none" xmlns="http://www.w3.org/2000/svg">
<path d="M92 0H8C3.58172 0 0 3.58172 0 8V52C0 56.4183 3.58172 60 8 60H92C96.4183 60 100 56.4183 100 52V8C100 3.58172 96.4183 0 92 0Z" fill="#345B7C"/>
<path d="M87.6808 23.8927C87.6808 23.5457 87.1323 23.3939 86.6381 23.3706L52.4007 23.0827L52.3725 18.3165C52.3387 12.7065 50.4207 13.0027 50.4207 13.0027L50.26 13.0027C50.26 13.0027 48.342 12.7065 48.3082 18.3165L48.28 23.0827L14.0427 23.3706C13.5485 23.3939 13 23.5457 13 23.8927V25.4227L48.5586 27.7797L49.09 43.7827L45.7206 44.1427C44.2059 44.3253 43.6993 44.7227 43.69 44.8627C43.6807 45.0027 43.6654 45.851 43.6654 45.851C43.69 46.1227 43.69 46.1227 43.78 46.2127L48.949 46.701C49.3157 46.6573 49.4595 46.5572 49.72 46.3027C49.72 46.3027 49.764 46.8427 49.81 46.9327H50.8707C50.9167 46.8427 50.9607 46.3027 50.9607 46.3027C51.2213 46.5572 51.365 46.6573 51.7317 46.701L56.9007 46.2127C56.9907 46.1227 56.9907 46.1227 57.0154 45.851C57.0154 45.851 57 45.0027 56.9907 44.8627C56.9815 44.7227 56.4748 44.3253 54.9601 44.1427L51.5907 43.7827L52.1221 27.7797L87.6808 25.4227V23.8927Z" fill="white"/>
<path d="M119.136 16.7841V12.7273H138.25V16.7841H131.125V36H126.261V16.7841H119.136ZM142.565 36H137.293L145.327 12.7273H151.668L159.69 36H154.418L148.588 18.0455H148.406L142.565 36ZM142.236 26.8523H154.69V30.6932H142.236V26.8523ZM162.491 36V12.7273H171.673C173.431 12.7273 174.931 13.0417 176.173 13.6705C177.423 14.2917 178.374 15.1742 179.026 16.3182C179.685 17.4545 180.014 18.7917 180.014 20.3295C180.014 21.875 179.681 23.2045 179.014 24.3182C178.348 25.4242 177.382 26.2727 176.116 26.8636C174.859 27.4545 173.336 27.75 171.548 27.75H165.401V23.7955H170.753C171.692 23.7955 172.473 23.6667 173.094 23.4091C173.715 23.1515 174.177 22.7652 174.48 22.25C174.791 21.7348 174.946 21.0947 174.946 20.3295C174.946 19.5568 174.791 18.9053 174.48 18.375C174.177 17.8447 173.711 17.4432 173.082 17.1705C172.461 16.8902 171.677 16.75 170.73 16.75H167.412V36H162.491ZM175.06 25.4091L180.844 36H175.412L169.753 25.4091H175.06ZM183.491 12.7273H189.56L195.969 28.3636H196.241L202.651 12.7273H208.719V36H203.946V20.8523H203.753L197.73 35.8864H194.48L188.457 20.7955H188.264V36H183.491V12.7273ZM216.784 36H211.511L219.545 12.7273H225.886L233.909 36H228.636L222.807 18.0455H222.625L216.784 36ZM216.455 26.8523H228.909V30.6932H216.455V26.8523ZM256.151 20.875H251.173C251.082 20.2311 250.897 19.6591 250.616 19.1591C250.336 18.6515 249.976 18.2197 249.537 17.8636C249.098 17.5076 248.59 17.2348 248.014 17.0455C247.446 16.8561 246.829 16.7614 246.162 16.7614C244.957 16.7614 243.908 17.0606 243.014 17.6591C242.12 18.25 241.427 19.1136 240.935 20.25C240.442 21.3788 240.196 22.75 240.196 24.3636C240.196 26.0227 240.442 27.4167 240.935 28.5455C241.435 29.6742 242.132 30.5265 243.026 31.1023C243.92 31.678 244.954 31.9659 246.128 31.9659C246.787 31.9659 247.397 31.8788 247.957 31.7045C248.526 31.5303 249.029 31.2765 249.469 30.9432C249.908 30.6023 250.272 30.1894 250.56 29.7045C250.855 29.2197 251.06 28.6667 251.173 28.0455L256.151 28.0682C256.022 29.1364 255.7 30.1667 255.185 31.1591C254.677 32.1439 253.991 33.0265 253.128 33.8068C252.272 34.5795 251.249 35.1932 250.06 35.6477C248.878 36.0947 247.541 36.3182 246.048 36.3182C243.973 36.3182 242.116 35.8485 240.48 34.9091C238.851 33.9697 237.563 32.6098 236.616 30.8295C235.677 29.0492 235.207 26.8939 235.207 24.3636C235.207 21.8258 235.685 19.6667 236.639 17.8864C237.594 16.1061 238.889 14.75 240.526 13.8182C242.162 12.8788 244.003 12.4091 246.048 12.4091C247.397 12.4091 248.647 12.5985 249.798 12.9773C250.957 13.3561 251.984 13.9091 252.878 14.6364C253.772 15.3561 254.499 16.2386 255.06 17.2841C255.628 18.3295 255.991 19.5265 256.151 20.875Z" fill="#345B7C"/>
<path d="M121.057 46.2727H122.318L125.284 53.517H125.386L128.352 46.2727H129.614V55H128.625V48.3693H128.54L125.812 55H124.858L122.131 48.3693H122.045V55H121.057V46.2727ZM132.091 55H130.983L134.187 46.2727H135.278L138.483 55H137.375L134.767 47.6534H134.699L132.091 55ZM132.5 51.5909H136.966V52.5284H132.5V51.5909ZM140.899 46.2727V55H139.842V46.2727H140.899ZM149.938 46.2727V55H148.915L144.16 48.1477H144.075V55H143.018V46.2727H144.04L148.813 53.142H148.898V46.2727H149.938ZM151.576 47.2102V46.2727H158.121V47.2102H155.377V55H154.32V47.2102H151.576ZM159.752 55V46.2727H165.019V47.2102H160.809V50.1591H164.746V51.0966H160.809V54.0625H165.087V55H159.752ZM173.844 46.2727V55H172.822L168.066 48.1477H167.981V55H166.924V46.2727H167.947L172.719 53.142H172.805V46.2727H173.844ZM176.317 55H175.209L178.414 46.2727H179.505L182.709 55H181.601L178.993 47.6534H178.925L176.317 55ZM176.726 51.5909H181.192V52.5284H176.726V51.5909ZM190.989 46.2727V55H189.966L185.211 48.1477H185.125V55H184.069V46.2727H185.091L189.864 53.142H189.949V46.2727H190.989ZM200.126 49H199.07C199.007 48.696 198.898 48.429 198.741 48.1989C198.588 47.9688 198.401 47.7756 198.179 47.6193C197.96 47.4602 197.717 47.3409 197.45 47.2614C197.183 47.1818 196.905 47.142 196.615 47.142C196.087 47.142 195.608 47.2756 195.179 47.5426C194.753 47.8097 194.413 48.2031 194.161 48.723C193.911 49.2429 193.786 49.8807 193.786 50.6364C193.786 51.392 193.911 52.0298 194.161 52.5497C194.413 53.0696 194.753 53.4631 195.179 53.7301C195.608 53.9972 196.087 54.1307 196.615 54.1307C196.905 54.1307 197.183 54.0909 197.45 54.0114C197.717 53.9318 197.96 53.8139 198.179 53.6577C198.401 53.4986 198.588 53.304 198.741 53.0739C198.898 52.8409 199.007 52.5739 199.07 52.2727H200.126C200.047 52.7187 199.902 53.1179 199.692 53.4702C199.482 53.8224 199.22 54.1222 198.908 54.3693C198.595 54.6136 198.244 54.7997 197.855 54.9276C197.469 55.0554 197.055 55.1193 196.615 55.1193C195.871 55.1193 195.209 54.9375 194.629 54.5739C194.05 54.2102 193.594 53.6932 193.261 53.0227C192.929 52.3523 192.763 51.5568 192.763 50.6364C192.763 49.7159 192.929 48.9205 193.261 48.25C193.594 47.5795 194.05 47.0625 194.629 46.6989C195.209 46.3352 195.871 46.1534 196.615 46.1534C197.055 46.1534 197.469 46.2173 197.855 46.3452C198.244 46.473 198.595 46.6605 198.908 46.9077C199.22 47.152 199.482 47.4503 199.692 47.8026C199.902 48.152 200.047 48.5511 200.126 49ZM201.834 55V46.2727H207.101V47.2102H202.891V50.1591H206.828V51.0966H202.891V54.0625H207.169V55H201.834ZM212.381 55V46.2727H215.33C216.015 46.2727 216.574 46.3963 217.009 46.6435C217.446 46.8878 217.77 47.2188 217.98 47.6364C218.191 48.054 218.296 48.5199 218.296 49.0341C218.296 49.5483 218.191 50.0156 217.98 50.4361C217.773 50.8565 217.452 51.1918 217.017 51.4418C216.583 51.6889 216.026 51.8125 215.347 51.8125H213.233V50.875H215.313C215.782 50.875 216.158 50.794 216.442 50.6321C216.726 50.4702 216.932 50.2514 217.06 49.9759C217.191 49.6974 217.256 49.3835 217.256 49.0341C217.256 48.6847 217.191 48.3722 217.06 48.0966C216.932 47.821 216.725 47.6051 216.438 47.4489C216.151 47.2898 215.77 47.2102 215.296 47.2102H213.438V55H212.381ZM219.998 55V46.2727H221.055V54.0625H225.112V55H219.998ZM227.657 55H226.549L229.754 46.2727H230.844L234.049 55H232.941L230.333 47.6534H230.265L227.657 55ZM228.066 51.5909H232.532V52.5284H228.066V51.5909ZM242.329 46.2727V55H241.306L236.55 48.1477H236.465V55H235.408V46.2727H236.431L241.204 53.142H241.289V46.2727H242.329ZM244.444 55V46.2727H249.711V47.2102H245.5V50.1591H249.438V51.0966H245.5V54.0625H249.779V55H244.444ZM257.343 46.2727H258.4V52.0511C258.4 52.6477 258.259 53.1804 257.978 53.6491C257.699 54.1151 257.306 54.483 256.797 54.7528C256.289 55.0199 255.692 55.1534 255.007 55.1534C254.323 55.1534 253.726 55.0199 253.218 54.7528C252.709 54.483 252.314 54.1151 252.033 53.6491C251.755 53.1804 251.615 52.6477 251.615 52.0511V46.2727H252.672V51.9659C252.672 52.392 252.766 52.7713 252.953 53.1037C253.141 53.4332 253.408 53.6932 253.755 53.8835C254.104 54.071 254.522 54.1648 255.007 54.1648C255.493 54.1648 255.911 54.071 256.26 53.8835C256.61 53.6932 256.877 53.4332 257.061 53.1037C257.249 52.7713 257.343 52.392 257.343 51.9659V46.2727ZM260.51 55V46.2727H263.459C264.141 46.2727 264.7 46.3892 265.138 46.6222C265.575 46.8523 265.899 47.169 266.109 47.5724C266.32 47.9759 266.425 48.4347 266.425 48.9489C266.425 49.4631 266.32 49.919 266.109 50.3168C265.899 50.7145 265.577 51.027 265.142 51.2543C264.707 51.4787 264.152 51.5909 263.476 51.5909H261.089V50.6364H263.442C263.908 50.6364 264.283 50.5682 264.567 50.4318C264.854 50.2955 265.061 50.1023 265.189 49.8523C265.32 49.5994 265.385 49.2983 265.385 48.9489C265.385 48.5994 265.32 48.294 265.189 48.0327C265.058 47.7713 264.849 47.5696 264.562 47.4276C264.276 47.2827 263.896 47.2102 263.425 47.2102H261.567V55H260.51ZM264.618 51.0795L266.766 55H265.538L263.425 51.0795H264.618Z" fill="#345B7C"/>
</svg>
