<?xml version="1.0" encoding="UTF-8"?>
<svg xmlns="http://www.w3.org/2000/svg" viewBox="-410 0 824 378">
  <path fill="#FFFFFF" d="M0 0 C1.98 0.495 1.98 0.495 4 1 C4 1.66 4 2.32 4 3 C4.66 3 5.32 3 6 3 C8.04169485 5.90548882 9 7.40142046 9 11 C9.66 11 10.32 11 11 11 C11.64964023 12.89453221 12.29455115 14.79068649 12.9375 16.6875 C13.29714844 17.74324219 13.65679687 18.79898438 14.02734375 19.88671875 C14.87206518 22.59050583 15.50893785 25.21386842 16 28 C16.66 28 17.32 28 18 28 C18.13277344 29.12019531 18.26554687 30.24039063 18.40234375 31.39453125 C18.58056569 32.86720729 18.75896011 34.33986247 18.9375 35.8125 C19.02451172 36.55048828 19.11152344 37.28847656 19.20117188 38.04882812 C19.58216546 41.16733121 20.00369374 44.01108122 21 47 C21.14551671 48.3519438 21.24540697 49.70912784 21.31420898 51.06713867 C21.37669579 52.29355827 21.37669579 52.29355827 21.44044495 53.54475403 C21.47943405 54.43103989 21.51842316 55.31732574 21.55859375 56.23046875 C21.60084579 57.15820602 21.64309784 58.0859433 21.68663025 59.04179382 C22.13401325 69.79814893 22.11004244 80.54906991 22.0625 91.3125 C22.05746455 93.33658741 22.05290533 95.36067606 22.04882812 97.38476562 C22.03800835 102.25654217 22.02086194 107.12825654 22 112 C22.62676175 111.99962028 23.25352351 111.99924056 23.89927804 111.99884933 C61.05940499 111.97646351 98.21953094 111.95930952 135.37966325 111.94893467 C139.84311536 111.94768399 144.30656745 111.94638966 148.77001953 111.94506836 C149.65859963 111.94480605 150.54717973 111.94454374 151.46268649 111.94427348 C165.84395433 111.93992407 180.22521816 111.93204051 194.60648362 111.9228472 C209.36675364 111.91349042 224.12702155 111.90794009 238.88729441 111.90591151 C247.99262678 111.90454049 257.09794783 111.90021268 266.20327671 111.89208353 C272.45004706 111.88679111 278.69681158 111.88520139 284.94358401 111.88649862 C288.54575459 111.88713809 292.14790542 111.88616875 295.75007248 111.88079453 C299.66146303 111.87500178 303.57282805 111.87701831 307.48422241 111.87974548 C308.61459659 111.87683264 309.74497077 111.8739198 310.90959871 111.87091869 C316.60837579 111.88164359 322.18751479 112.10620221 327.84983671 112.76589757 C331.29416575 113.14090434 334.73857435 113.2255489 338.20019531 113.30957031 C339.7572651 113.353794 341.31433289 113.39808829 342.87139893 113.44244385 C343.6791703 113.46423958 344.48694168 113.48603531 345.31919098 113.50849152 C349.6507183 113.62870964 353.98153765 113.77128758 358.3125 113.91015625 C363.79853506 114.08514307 369.28450354 114.25333993 374.77148438 114.39599609 C379.23178607 114.51254892 383.69081962 114.65246325 388.14992523 114.80800629 C389.84168951 114.8627499 391.53375294 114.90896439 393.2259903 114.94632721 C395.59109286 114.99966601 397.95343025 115.08285629 400.31738281 115.17285156 C401.00945831 115.18135635 401.70153381 115.18986115 402.4145813 115.19862366 C407.90615471 115.45770669 410.26337412 117.23580502 414 121 C414.68115234 123.12817383 414.68115234 123.12817383 414.5859375 125.20703125 C414.56660156 125.95791016 414.54726563 126.70878906 414.52734375 127.48242188 C414.47707031 128.25134766 414.42679688 129.02027344 414.375 129.8125 C414.34792969 130.60076172 414.32085938 131.38902344 414.29296875 132.20117188 C414.22263676 134.13530157 414.11502458 136.06801304 414 138 C413.39003174 138.05534912 412.78006348 138.11069824 412.15161133 138.16772461 C409.37164727 138.42155316 406.59207876 138.67948775 403.8125 138.9375 C402.85279297 139.02451172 401.89308594 139.11152344 400.90429688 139.20117188 C399.97294922 139.28818359 399.04160156 139.37519531 398.08203125 139.46484375 C396.80162964 139.58267212 396.80162964 139.58267212 395.49536133 139.70288086 C392.95916441 140.00486224 390.50283903 140.49658892 388 141 C384.19994704 141.29739545 380.39937406 141.50563505 376.59375 141.71875 C373.18631737 141.90837448 373.18631737 141.90837448 370.63349915 142.49525452 C367.81961747 143.03457273 365.13199802 143.22681604 362.27026367 143.35717773 C360.57645821 143.43747475 360.57645821 143.43747475 358.84843445 143.51939392 C357.63388077 143.57357986 356.41932709 143.62776581 355.16796875 143.68359375 C352.56835368 143.80782366 349.9687445 143.93217666 347.36914062 144.05664062 C343.29285963 144.24816567 339.21642999 144.43633338 335.13989258 144.62231445 C315.63253095 145.48054808 315.63253095 145.48054808 296.23266602 147.57397461 C291.28979188 148.22538427 286.35445688 148.4143449 281.375 148.5625 C274.67307126 148.72616547 274.67307126 148.72616547 268.03125 149.5234375 C263.40420057 150.25088599 258.8001884 150.10367713 254.125 150.0625 C253.15046875 150.05798828 252.1759375 150.05347656 251.171875 150.04882812 C248.78118566 150.03710906 246.3906256 150.02070219 244 150 C244 150.66 244 151.32 244 152 C235.08377927 152.48757762 226.16705826 152.9654988 217.25 153.4375 C216.2584856 153.49010546 216.2584856 153.49010546 215.24694061 153.54377365 C198.71054594 154.41986798 182.18235683 155.21251983 165.625 155.5625 C156.35281341 155.75862734 147.20703604 156.13565998 137.99658203 157.26977539 C129.02784206 158.2768545 120.0147676 158.31721484 111 158.5 C98.91214989 158.74696756 86.87307178 159.12065017 74.8125 160 C73.66201172 160.08314453 72.51152344 160.16628906 71.32617188 160.25195312 C66.16270637 160.570988 66.16270637 160.570988 61.09307861 161.5 C57.58630705 162.33770661 53.99221705 162.34115505 50.40234375 162.5 C49.57166885 162.54060547 48.74099396 162.58121094 47.88514709 162.62304688 C44.33768956 162.7963934 40.78981937 162.96047573 37.24194336 163.125 C34.64939932 163.24656631 32.05713309 163.37313629 29.46484375 163.5 C28.66167221 163.53544922 27.85850067 163.57089844 27.0309906 163.60742188 C23.81151742 163.76562119 21.07431545 163.97522818 18 165 C18.01160156 165.93972656 18.02320313 166.87945312 18.03515625 167.84765625 C18.11849991 178.23868767 17.88595015 188.61498927 17.5625 199 C17.5330278 200.00028732 17.5330278 200.00028732 17.50296021 201.02078247 C17.44467125 202.97230856 17.38059267 204.92365897 17.31640625 206.875 C17.27974854 208.00679687 17.24309082 209.13859375 17.20532227 210.3046875 C17.0514628 213.07379204 16.82091976 215.77835744 16.52023315 218.53137207 C15.95778421 224.08060119 15.68416045 229.6210745 15.47094727 235.19335938 C15.42948609 236.23503014 15.38802492 237.2767009 15.34530735 238.34993744 C14.92855169 249.19954145 14.6813161 260.05111728 14.46484375 270.90625 C14.4216496 272.97945603 14.37823366 275.05265745 14.33460999 277.12585449 C14.22228599 282.49145231 14.11290291 287.85710586 14.00421143 293.22277832 C13.89201442 298.73449453 13.77692686 304.24615037 13.66210938 309.7578125 C13.43863633 320.50515235 13.21828163 331.25255354 13 342 C14.22405548 341.98980331 14.22405548 341.98980331 15.47283936 341.97940063 C16.54753479 341.97411346 17.62223022 341.96882629 18.72949219 341.96337891 C20.32479767 341.95318222 20.32479767 341.95318222 21.95233154 341.94277954 C25.83740384 342.01572239 29.45791272 342.58272209 33.25 343.375 C38.96903641 344.48546732 44.64726251 345.36039276 50.4375 346 C67.26734067 348.02889384 67.26734067 348.02889384 73 354 C73.5234375 357.41796875 73.5234375 357.41796875 73.375 361.1875 C73.34148437 362.43917969 73.30796875 363.69085938 73.2734375 364.98046875 C73 368 73 368 72 369 C69.70889744 369.36072598 67.4083017 369.66139394 65.10546875 369.9375 C64.4028743 370.02249756 63.70027985 370.10749512 62.97639465 370.19506836 C61.47938149 370.3752597 59.98211242 370.55333535 58.48461914 370.72949219 C56.23457227 370.99445679 53.98542248 371.26614427 51.73632812 371.5390625 C40.70840245 372.86490561 29.67741796 374.10320026 18.5625 374.3125 C17.24378906 374.34988281 15.92507813 374.38726562 14.56640625 374.42578125 C10.49199398 373.93935087 8.89497558 372.82803973 6 370 C5.67 372.31 5.34 374.62 5 377 C3.68 377.33 2.36 377.66 1 378 C-0.98 374.535 -0.98 374.535 -3 371 C-3.32484375 371.48855469 -3.6496875 371.97710937 -3.984375 372.48046875 C-7.12451453 374.84774448 -10.47740956 374.39758129 -14.25 374.3125 C-15.4572876 374.29884399 -15.4572876 374.29884399 -16.68896484 374.28491211 C-22.95052321 374.15706218 -29.04353525 373.45921861 -35.234375 372.5078125 C-40.1429499 371.84586775 -45.04130013 371.56558979 -49.98681641 371.34204102 C-54.90062376 371.09937624 -54.90062376 371.09937624 -56 370 C-58.18292774 369.76518307 -60.37203174 369.58636677 -62.5625 369.4375 C-63.76003906 369.35371094 -64.95757812 369.26992188 -66.19140625 369.18359375 C-67.11824219 369.12300781 -68.04507812 369.06242187 -69 369 C-69.05441656 367.10448978 -69.09298035 365.2085208 -69.125 363.3125 C-69.15980469 361.72888672 -69.15980469 361.72888672 -69.1953125 360.11328125 C-68.94225553 356.07955322 -68.19435093 353.15169554 -65.25 350.3125 C-57.93617694 346.04610321 -49.23635136 345.88240676 -41 345 C-39.71343506 344.86029785 -39.71343506 344.86029785 -38.40087891 344.71777344 C-28.25349194 343.63258977 -18.21717037 342.61923589 -8 343 C-8.06058594 341.86433594 -8.12117188 340.72867187 -8.18359375 339.55859375 C-8.66166407 330.07525937 -9.02772842 320.59418415 -9.25390625 311.1015625 C-9.28501747 309.80518608 -9.28501747 309.80518608 -9.3167572 308.48262024 C-9.42017835 304.11214729 -9.5171555 299.74161833 -9.60717773 295.37084961 C-9.64427944 293.72769981 -9.68146662 292.08455194 -9.71875 290.44140625 C-9.73229019 289.6941629 -9.74583038 288.94691956 -9.75978088 288.17703247 C-9.86522021 283.70864901 -10.35069987 279.42874684 -11 275 C-11.12877807 272.66573153 -11.22121928 270.32923465 -11.28125 267.9921875 C-11.31863281 266.67476563 -11.35601562 265.35734375 -11.39453125 264 C-11.43008009 262.62501009 -11.46523486 261.25000994 -11.5 259.875 C-11.55215152 257.84450257 -11.60564469 255.81408046 -11.66296387 253.78372192 C-11.71532894 251.92605103 -11.76309857 250.0682522 -11.81054688 248.21044922 C-11.93350635 244.7841052 -12.20425686 241.37889016 -12.48632812 237.9621582 C-13.01805859 231.25571078 -13.26622974 224.55831072 -13.44555664 217.83410072 C-13.50150162 215.74469951 -13.56175106 213.65545862 -13.62304688 211.56620789 C-13.79621035 205.63780665 -13.96155159 199.70919375 -14.125 193.78051758 C-14.22598703 190.12795926 -14.33148696 186.47555321 -14.43969727 182.82320213 C-14.47976946 181.43773655 -14.51803006 180.05221734 -14.55444336 178.66665077 C-14.60500522 176.74290266 -14.66172322 174.81931928 -14.71875 172.89575195 C-14.74904297 171.80245071 -14.77933594 170.70914948 -14.81054688 169.5827179 C-14.83424258 167.01436393 -14.83424258 167.01436393 -16 165 C-18.19748666 164.55397414 -18.19748666 164.55397414 -20.88916016 164.42163086 C-21.93600983 164.34492661 -22.9828595 164.26822235 -24.06143188 164.18919373 C-25.20904999 164.11515823 -26.35666809 164.04112274 -27.5390625 163.96484375 C-29.31958511 163.83946983 -29.31958511 163.83946983 -31.13607788 163.71156311 C-33.66967538 163.53493024 -36.2035983 163.36291595 -38.73779297 163.19506836 C-42.53294896 162.94359935 -46.32701443 162.67928056 -50.12109375 162.41210938 C-62.70058854 161.54038894 -75.27403564 160.771731 -87.87734985 160.3447113 C-92.04526587 160.19224658 -95.91589717 159.89076227 -100 159 C-101.97182135 158.86877072 -103.94657154 158.77771428 -105.921875 158.71875 C-107.02917969 158.68136719 -108.13648438 158.64398438 -109.27734375 158.60546875 C-111.60805857 158.53468214 -113.93878802 158.46437594 -116.26953125 158.39453125 C-117.92275391 158.33845703 -117.92275391 158.33845703 -119.609375 158.28125 C-120.61967773 158.25095703 -121.62998047 158.22066406 -122.67089844 158.18945312 C-125 158 -125 158 -126 157 C-127.82913723 156.87534311 -129.66297014 156.81972474 -131.49609375 156.7890625 C-132.72811523 156.76263672 -133.96013672 156.73621094 -135.22949219 156.70898438 C-135.90927124 156.69569092 -136.58905029 156.68239746 -137.28942871 156.66870117 C-155.90797852 156.28991838 -174.4900736 155.29485203 -193.0836792 154.29354858 C-207.24163544 153.53250829 -221.38875659 152.81246676 -235.5625 152.4375 C-243.99579264 152.2126122 -252.19025791 151.6292538 -260.54296875 150.4765625 C-270.61103381 149.24786827 -280.86999388 149.28739263 -291 149 C-291 148.34 -291 147.68 -291 147 C-291.66080566 147.01047363 -292.32161133 147.02094727 -293.00244141 147.03173828 C-306.90406376 147.21995219 -320.69546238 147.00238778 -334.5625 146.0625 C-335.86977051 145.97564941 -337.17704102 145.88879883 -338.52392578 145.79931641 C-347.72713972 145.13643014 -347.72713972 145.13643014 -350 144 C-353.26545049 143.76701769 -356.52397623 143.60671175 -359.79492188 143.48242188 C-360.48521484 143.44826172 -361.17550781 143.41410156 -361.88671875 143.37890625 C-362.50764404 143.3538501 -363.12856934 143.32879395 -363.76831055 143.30297852 C-366 143 -366 143 -369.22436523 142.02734375 C-373.37372988 140.89830874 -377.25157494 140.48141605 -381.5234375 140.18359375 C-382.31021881 140.12220718 -383.09700012 140.06082062 -383.90762329 139.99757385 C-386.39628471 139.80407453 -388.88551002 139.62000474 -391.375 139.4375 C-393.88581609 139.25047325 -396.39640787 139.06134094 -398.90664673 138.86671448 C-400.46323889 138.74627954 -402.02018944 138.63037584 -403.57748413 138.51939392 C-408.8878238 138.1121762 -408.8878238 138.1121762 -410 137 C-410.12680356 134.77356538 -410.17584894 132.54251223 -410.1875 130.3125 C-410.20167969 129.09175781 -410.21585937 127.87101562 -410.23046875 126.61328125 C-410.00046932 123.00735805 -409.48467265 120.28995568 -408 117 C-404.23394973 115.74464991 -400.66542243 115.78645717 -396.73828125 115.71875 C-395.91482712 115.70034058 -395.09137299 115.68193115 -394.2429657 115.66296387 C-391.59954968 115.6042528 -388.95606401 115.55158409 -386.3125 115.5 C-383.71536971 115.447965 -381.11830378 115.39442643 -378.52128601 115.33703613 C-376.90824534 115.30151101 -375.29513628 115.26888641 -373.68196106 115.2401123 C-368.91279443 115.1365575 -364.17021262 114.88356308 -359.41133118 114.55380249 C-346.97708057 113.74757591 -334.52213851 113.36177702 -322.06982422 112.94970703 C-321.06591145 112.91642626 -321.06591145 112.91642626 -320.04171762 112.88247314 C-289.80336304 111.88699367 -259.57678358 111.73030628 -229.32393981 111.7929235 C-221.97000521 111.80772172 -214.61607735 111.81026679 -207.26213001 111.81251587 C-194.16350959 111.81681934 -181.06491507 111.8299205 -167.96630859 111.84912109 C-155.29443485 111.86767604 -142.62256831 111.8817344 -129.95068359 111.89013672 C-128.76538367 111.89092489 -128.76538367 111.89092489 -127.55613829 111.89172898 C-123.58921843 111.89434036 -119.62229852 111.89686746 -115.65537858 111.89935279 C-83.10356695 111.91985458 -50.55178717 111.9548694 -18 112 C-18.00999275 110.97881325 -18.00999275 110.97881325 -18.02018738 109.93699646 C-18.08711783 102.78169531 -18.13203747 95.62648463 -18.16479492 88.47094727 C-18.17807017 85.80865573 -18.2001744 83.14686363 -18.22631836 80.48461914 C-18.48569074 53.37257658 -18.48569074 53.37257658 -15 40 C-14.80443717 38.52437573 -14.63339343 37.04503769 -14.5 35.5625 C-14.03058446 32.21791428 -13.16128122 29.41355094 -11.890625 26.29296875 C-10.38273791 22.41082085 -9.203574 18.41628765 -7.96484375 14.44140625 C-7 12 -7 12 -5 11 C-4.16688918 9.21709991 -4.16688918 9.21709991 -3.5 7.125 C-2.54807599 4.32096296 -1.68278772 2.52418158 0 0 Z"/>
</svg>


