<?xml version="1.0" encoding="UTF-8" standalone="no"?>
<!DOCTYPE svg PUBLIC "-//W3C//DTD SVG 1.1//EN" "http://www.w3.org/Graphics/SVG/1.1/DTD/svg11.dtd">
<svg width="100%" height="100%" viewBox="0 0 280 63" version="1.1" xmlns="http://www.w3.org/2000/svg" xmlns:xlink="http://www.w3.org/1999/xlink" xml:space="preserve" xmlns:serif="http://www.serif.com/" style="fill-rule:evenodd;clip-rule:evenodd;stroke-linejoin:round;stroke-miterlimit:2;">
    <g transform="matrix(1,0,0,1,1.5,1.460674)">
        <path d="M92,0L8,0C3.582,0 0,3.582 0,8L0,52C0,56.418 3.582,60 8,60L92,60C96.418,60 100,56.418 100,52L100,8C100,3.582 96.418,0 92,0Z" style="fill:rgb(52,91,124);fill-rule:nonzero;"/>
    </g>
    <g transform="matrix(1,0,0,1,1.5,1.460674)">
        <path d="M87.681,23.893C87.681,23.546 87.132,23.394 86.638,23.371L52.401,23.083L52.373,18.317C52.339,12.707 50.421,13.003 50.421,13.003L50.26,13.003C50.26,13.003 48.342,12.707 48.308,18.317L48.28,23.083L14.043,23.371C13.549,23.394 13,23.546 13,23.893L13,25.423L48.559,27.78L49.09,43.783L45.721,44.143C44.206,44.325 43.699,44.723 43.69,44.863C43.681,45.003 43.665,45.851 43.665,45.851C43.69,46.123 43.69,46.123 43.78,46.213L48.949,46.701C49.316,46.657 49.459,46.557 49.72,46.303C49.72,46.303 49.764,46.843 49.81,46.933L50.871,46.933C50.917,46.843 50.961,46.303 50.961,46.303C51.221,46.557 51.365,46.657 51.732,46.701L56.901,46.213C56.991,46.123 56.991,46.123 57.015,45.851C57.015,45.851 57,45.003 56.991,44.863C56.981,44.723 56.475,44.325 54.96,44.143L51.591,43.783L52.122,27.78L87.681,25.423L87.681,23.893Z" style="fill:white;fill-rule:nonzero;"/>
    </g>
    <g transform="matrix(1,0,0,1,-10.5,-0.539326)">
        <path d="M119.136,16.784L119.136,12.727L138.25,12.727L138.25,16.784L131.125,16.784L131.125,36L126.261,36L126.261,16.784L119.136,16.784ZM142.565,36L137.293,36L145.327,12.727L151.668,12.727L159.69,36L154.418,36L148.588,18.046L148.406,18.046L142.565,36ZM142.236,26.852L154.69,26.852L154.69,30.693L142.236,30.693L142.236,26.852ZM162.491,36L162.491,12.727L171.673,12.727C173.431,12.727 174.931,13.042 176.173,13.671C177.423,14.292 178.374,15.174 179.026,16.318C179.685,17.454 180.014,18.792 180.014,20.329C180.014,21.875 179.681,23.204 179.014,24.318C178.348,25.424 177.382,26.273 176.116,26.864C174.859,27.454 173.336,27.75 171.548,27.75L165.401,27.75L165.401,23.796L170.753,23.796C171.692,23.796 172.473,23.667 173.094,23.409C173.715,23.151 174.177,22.765 174.48,22.25C174.791,21.735 174.946,21.095 174.946,20.329C174.946,19.557 174.791,18.905 174.48,18.375C174.177,17.845 173.711,17.443 173.082,17.171C172.461,16.89 171.677,16.75 170.73,16.75L167.412,16.75L167.412,36L162.491,36ZM175.06,25.409L180.844,36L175.412,36L169.753,25.409L175.06,25.409ZM183.491,12.727L189.56,12.727L195.969,28.364L196.241,28.364L202.651,12.727L208.719,12.727L208.719,36L203.946,36L203.946,20.852L203.753,20.852L197.73,35.886L194.48,35.886L188.457,20.796L188.264,20.796L188.264,36L183.491,36L183.491,12.727ZM216.784,36L211.511,36L219.545,12.727L225.886,12.727L233.909,36L228.636,36L222.807,18.046L222.625,18.046L216.784,36ZM216.455,26.852L228.909,26.852L228.909,30.693L216.455,30.693L216.455,26.852ZM256.151,20.875L251.173,20.875C251.082,20.231 250.897,19.659 250.616,19.159C250.336,18.651 249.976,18.22 249.537,17.864C249.098,17.508 248.59,17.235 248.014,17.046C247.446,16.856 246.829,16.761 246.162,16.761C244.957,16.761 243.908,17.061 243.014,17.659C242.12,18.25 241.427,19.114 240.935,20.25C240.442,21.379 240.196,22.75 240.196,24.364C240.196,26.023 240.442,27.417 240.935,28.546C241.435,29.674 242.132,30.526 243.026,31.102C243.92,31.678 244.954,31.966 246.128,31.966C246.787,31.966 247.397,31.879 247.957,31.704C248.526,31.53 249.029,31.276 249.469,30.943C249.908,30.602 250.272,30.189 250.56,29.704C250.855,29.22 251.06,28.667 251.173,28.046L256.151,28.068C256.022,29.136 255.7,30.167 255.185,31.159C254.677,32.144 253.991,33.026 253.128,33.807C252.272,34.58 251.249,35.193 250.06,35.648C248.878,36.095 247.541,36.318 246.048,36.318C243.973,36.318 242.116,35.849 240.48,34.909C238.851,33.97 237.563,32.61 236.616,30.829C235.677,29.049 235.207,26.894 235.207,24.364C235.207,21.826 235.685,19.667 236.639,17.886C237.594,16.106 238.889,14.75 240.526,13.818C242.162,12.879 244.003,12.409 246.048,12.409C247.397,12.409 248.647,12.598 249.798,12.977C250.957,13.356 251.984,13.909 252.878,14.636C253.772,15.356 254.499,16.239 255.06,17.284C255.628,18.329 255.991,19.526 256.151,20.875Z" style="fill:rgb(52,91,124);fill-rule:nonzero;"/>
    </g>
    <g transform="matrix(1,0,0,1,-11.5,-0.539326)">
        <g transform="matrix(11,0,0,11,287.42334,55)">
        </g>
        <text x="121px" y="55px" style="font-family:'Arial-BoldMT', 'Arial', sans-serif;font-weight:700;font-size:11px;fill:rgb(52,91,124);">REP<tspan x="142.801px 150.745px 158.689px 165.816px 172.536px " y="55px 55px 55px 55px 55px ">ARATI</tspan>ON &amp; MAINTENANCE</text>
    </g>
</svg>
